<?xml version="1.0" encoding="UTF-8" standalone="no"?>
<!-- Created with Inkscape (http://www.inkscape.org/) -->

<svg
   xmlns:dc="http://purl.org/dc/elements/1.1/"
   xmlns:cc="http://creativecommons.org/ns#"
   xmlns:rdf="http://www.w3.org/1999/02/22-rdf-syntax-ns#"
   xmlns:svg="http://www.w3.org/2000/svg"
   xmlns="http://www.w3.org/2000/svg"
   xmlns:sodipodi="http://sodipodi.sourceforge.net/DTD/sodipodi-0.dtd"
   xmlns:inkscape="http://www.inkscape.org/namespaces/inkscape"
   width="172.73413mm"
   height="103.86672mm"
   viewBox="0 0 612.05007 368.03169"
   id="svg3634"
   version="1.1"
   inkscape:version="0.91 r13725"
   sodipodi:docname="cougar2-out.svg">
  <defs
     id="defs3636" />
  <sodipodi:namedview
     id="base"
     pagecolor="#ffffff"
     bordercolor="#666666"
     borderopacity="1.0"
     inkscape:pageopacity="0.0"
     inkscape:pageshadow="2"
     inkscape:zoom="0.7"
     inkscape:cx="271.0801"
     inkscape:cy="155.7994"
     inkscape:document-units="px"
     inkscape:current-layer="layer3"
     showgrid="false"
     inkscape:window-width="1400"
     inkscape:window-height="855"
     inkscape:window-x="0"
     inkscape:window-y="1"
     inkscape:window-maximized="1"
     fit-margin-top="0"
     fit-margin-left="0"
     fit-margin-right="0"
     fit-margin-bottom="0" />
  <metadata
     id="metadata3639">
    <rdf:RDF>
      <cc:Work
         rdf:about="">
        <dc:format>image/svg+xml</dc:format>
        <dc:type
           rdf:resource="http://purl.org/dc/dcmitype/StillImage" />
        <dc:title></dc:title>
      </cc:Work>
    </rdf:RDF>
  </metadata>
  <g
     inkscape:groupmode="layer"
     id="layer3"
     inkscape:label="cougar"
     style="display:inline"
     transform="translate(-60.346415,-262.98705)">
    <path
       style="fill:none;fill-rule:evenodd;stroke:#000000;stroke-width:1px;stroke-linecap:butt;stroke-linejoin:miter;stroke-opacity:1"
       d="m 92.857143,268.07649 c 6.118068,0.0416 6.357941,2.07223 9.285717,5 4.2138,4.2138 3.85665,12.42808 8.57143,17.14286 14.55448,14.55448 32.42634,-30.85789 45.71428,-26.42857 10.73755,3.57918 8.58231,48.59319 15.71429,62.85714"
       id="path3708"
       inkscape:connector-curvature="0" />
    <path
       style="fill:none;fill-rule:evenodd;stroke:#000000;stroke-width:1px;stroke-linecap:butt;stroke-linejoin:miter;stroke-opacity:1"
       d="m 90.714286,268.79078 c -16.810769,4.08367 -6.107454,27.53602 -14.285714,35.71428 -17.439523,17.43952 -20.157636,35.39902 -8.571429,58.57143 2.325208,4.65042 -2.131972,9.30749 -0.714286,12.14286 1.654774,3.30954 6.926255,2.64054 9.285715,5 3.921891,3.92189 6.701601,10.27303 11.428571,15 3.024512,3.02451 27.899287,4.95785 29.285717,3.57143 2.41179,-2.4118 3.56045,-5.68684 5,-9.28572"
       id="path3710"
       inkscape:connector-curvature="0" />
    <path
       style="fill:none;fill-rule:evenodd;stroke:#000000;stroke-width:1px;stroke-linecap:butt;stroke-linejoin:miter;stroke-opacity:1"
       d="m 136.42857,288.79078 c 9.51063,1.644 16.33452,5.71428 26.42857,5.71428"
       id="path3712"
       inkscape:connector-curvature="0" />
    <path
       style="fill:none;fill-rule:evenodd;stroke:#000000;stroke-width:1px;stroke-linecap:butt;stroke-linejoin:miter;stroke-opacity:1"
       d="m 110,293.07649 c -8.12971,3.36273 -17.700555,8.39725 -25.714286,10"
       id="path3714"
       inkscape:connector-curvature="0" />
    <path
       style="fill:none;fill-rule:evenodd;stroke:#000000;stroke-width:1px;stroke-linecap:butt;stroke-linejoin:miter;stroke-opacity:1"
       d="m 112.85714,298.07649 c 19.23907,31.86509 21.56004,50.18843 11.42857,90.71429"
       id="path3716"
       inkscape:connector-curvature="0" />
    <path
       style="fill:none;fill-rule:evenodd;stroke:#000000;stroke-width:1px;stroke-linecap:butt;stroke-linejoin:miter;stroke-opacity:1"
       d="m 162.14286,298.07649 c -4.292,27.63565 -0.93146,21.21139 13.57143,35.71429"
       id="path3718"
       inkscape:connector-curvature="0" />
    <path
       style="fill:none;fill-rule:evenodd;stroke:#000000;stroke-width:1px;stroke-linecap:butt;stroke-linejoin:miter;stroke-opacity:1"
       d="m 387.85714,340.93363 c -9.40871,3.28741 -22.78929,-6.81964 -32.14285,-2.14285 -39.67163,19.83581 -122.29349,41.27793 -158.57143,5 -4.99114,-4.99115 -19.28755,-8.81198 -25,-16.42858"
       id="path3720"
       inkscape:connector-curvature="0" />
    <path
       style="fill:none;fill-rule:evenodd;stroke:#000000;stroke-width:1px;stroke-linecap:butt;stroke-linejoin:miter;stroke-opacity:1"
       d="m 391.42857,343.07649 c 32.03676,2.89688 76.42857,42.66172 76.42857,77.14286"
       id="path3722"
       inkscape:connector-curvature="0" />
    <path
       style="fill:none;fill-rule:evenodd;stroke:#000000;stroke-width:1px;stroke-linecap:butt;stroke-linejoin:miter;stroke-opacity:1"
       d="m 429.28571,450.21935 c 18.27293,15.43129 42.31135,53.68375 55,62.14285 13.64579,9.0972 29.88092,38.54166 44.28572,42.14286 10.23505,2.55876 16.77632,12.40837 27.14286,15 9.21026,2.30257 16.7252,4.86078 25.71428,7.85714 22.42209,7.47403 75.85889,26.85366 89.28572,0 2.96968,-5.93936 -0.0928,-12.94994 -4.28572,-17.14285 -22.60025,-22.60025 -31.65105,2.54488 -54.28571,-5 -10.5641,-3.52137 -20.09295,-14.77006 -30,-20.71429 -12.21145,-7.32687 -24.11343,-10.98528 -36.42857,-17.14286 -23.78463,-11.89231 -84.30838,-76.33791 -78.57143,-99.28571"
       id="path3724"
       inkscape:connector-curvature="0" />
    <path
       style="fill:none;fill-rule:evenodd;stroke:#000000;stroke-width:1px;stroke-linecap:butt;stroke-linejoin:miter;stroke-opacity:1"
       d="m 457.14286,485.21935 c -21.57103,30.36916 -10,73.69248 -10,110.71428 0,3.06131 1.93861,23.67355 -0.71429,25 -3.12141,1.56071 -6.85054,-7.35384 -9.28571,-8.57143 -4.22838,-2.11418 -12.82453,-2.79191 -15,-7.14285 -8.99946,-17.99891 12.7458,-73.73845 2.85714,-88.57143 -0.46783,-0.70175 -1.27939,10.63969 -10,15 -13.28382,6.64191 -28.28441,1.42857 -42.14286,1.42857 -15.50879,0 -14.811,118.04614 -38.57143,94.28571 -24.53432,-24.53432 -8.95087,-57.94636 -16.42857,-87.85714 -2.97482,-11.89931 -7.14285,-9.40263 -7.14285,-20 0,-9.7619 0,-19.52381 0,-29.28571 0,-2.61905 -2.61905,-7.85715 0,-7.85715 3.57935,0 1.8167,8.1833 -0.71429,10.71429 -0.84179,0.84179 -4.04762,2.14286 -2.85714,2.14286 3.83787,0 -3.30528,0.84736 -3.57143,0.71428 -1.40108,-0.70054 0.60949,-6.70159 -2.85714,-7.85714 -7.53293,-2.51097 -35.11244,-0.90278 -40,6.42857 -9.71481,14.57221 -3.57869,29.24218 -0.71429,46.42857 0.35883,2.15295 1.16033,27.85715 0.71429,27.85715 -8.67887,0 -25.67789,-64.32212 -39.28572,-50.71429 -21.78732,21.78732 27.71972,100.67993 -26.42857,87.14286 -8.69243,-2.17311 -20.46376,-49.24844 -24.28571,-60.71429 -5.71016,-17.13047 -15.22838,-27.99967 -22.85715,-40.71428 -15.90434,-26.50724 -23.57143,-80.13309 -23.57143,-115"
       id="path3726"
       inkscape:connector-curvature="0" />
    <path
       style="fill:none;fill-rule:evenodd;stroke:#000000;stroke-width:1px;stroke-linecap:butt;stroke-linejoin:miter;stroke-opacity:1"
       d="m 332.14286,395.21935 c -5.40612,0.0227 -11.41668,-0.36309 -16.42857,2.14285 -13.38841,6.69421 -43.21066,15.71429 -54.28572,15.71429 -6.71308,0 -29.17702,-0.10869 -31.42857,2.14286 -7.7845,7.78449 -7.10571,38.34571 -30,30.71428 -20.66958,-6.88986 -8.81517,-60.48749 -15,-72.85714 -1.85958,-3.71917 -7.9847,2.85714 -12.14286,2.85714 -3.409,0 -8.47544,-5.19196 -10,-2.14285 -1.52381,3.04761 1.52381,8.38095 0,11.42857 -2.43215,4.8643 -6.42857,13.74925 -6.42857,19.28571 0,1.38832 -0.75453,-3.57143 -2.14286,-3.57143 -1.78666,0 -10.67399,5.67399 -12.14285,7.14286 C 136.41028,413.80906 130,436.82484 130,445.21935"
       id="path3728"
       inkscape:connector-curvature="0" />
    <path
       style="fill:none;fill-rule:evenodd;stroke:#000000;stroke-width:1px;stroke-linecap:butt;stroke-linejoin:miter;stroke-opacity:1"
       d="m 326.42857,505.93363 c 6.7113,-25.94195 8.66431,-43.13576 17.14286,-68.57143 0.43902,-1.31707 3.53118,-3.57142 2.14286,-3.57142 -1.27476,0 1.07089,-20.35555 1.42857,-21.42858 0.24405,-0.73215 11.30859,-8.76953 12.85714,-9.28571 1.03846,-0.34615 12.77046,16.74237 17.85714,19.28571 10.81132,5.40566 23.38006,-11.8814 32.85715,-7.14285 5.90651,2.95325 16.23615,33.07678 21.42857,40"
       id="path3730"
       inkscape:connector-curvature="0" />
    <path
       style="fill:none;fill-rule:evenodd;stroke:#000000;stroke-width:1px;stroke-linecap:butt;stroke-linejoin:miter;stroke-opacity:1"
       d="m 332.14286,394.50506 c -6.60314,26.4395 -23.09501,46.19141 -15.71429,75.71429"
       id="path3732"
       inkscape:connector-curvature="0" />
  </g>
</svg>
