<?xml version="1.0" encoding="UTF-8" standalone="no"?>
<!-- Created with Inkscape (http://www.inkscape.org/) -->

<svg
   xmlns:dc="http://purl.org/dc/elements/1.1/"
   xmlns:cc="http://creativecommons.org/ns#"
   xmlns:rdf="http://www.w3.org/1999/02/22-rdf-syntax-ns#"
   xmlns:svg="http://www.w3.org/2000/svg"
   xmlns="http://www.w3.org/2000/svg"
   xmlns:xlink="http://www.w3.org/1999/xlink"
   xmlns:sodipodi="http://sodipodi.sourceforge.net/DTD/sodipodi-0.dtd"
   xmlns:inkscape="http://www.inkscape.org/namespaces/inkscape"
   width="210mm"
   height="297mm"
   viewBox="0 0 744.09448819 1052.3622047"
   id="svg2"
   version="1.1"
   inkscape:version="0.91 r13725"
   sodipodi:docname="cougar1.svg">
  <defs
     id="defs4" />
  <sodipodi:namedview
     id="base"
     pagecolor="#ffffff"
     bordercolor="#666666"
     borderopacity="1.0"
     inkscape:pageopacity="0.0"
     inkscape:pageshadow="2"
     inkscape:zoom="0.98994949"
     inkscape:cx="323.34673"
     inkscape:cy="520"
     inkscape:document-units="px"
     inkscape:current-layer="svg2"
     showgrid="false"
     inkscape:window-width="1400"
     inkscape:window-height="855"
     inkscape:window-x="0"
     inkscape:window-y="1"
     inkscape:window-maximized="1" />
  <metadata
     id="metadata7">
    <rdf:RDF>
      <cc:Work
         rdf:about="">
        <dc:format>image/svg+xml</dc:format>
        <dc:type
           rdf:resource="http://purl.org/dc/dcmitype/StillImage" />
        <dc:title></dc:title>
      </cc:Work>
    </rdf:RDF>
  </metadata>
  <g
     inkscape:label="reference"
     inkscape:groupmode="layer"
     id="layer1"
     style="display:none">
    <image
       sodipodi:absref="/Users/m4burns/Downloads/cougar.jpg"
       y="223.68996"
       x="-27.276867"
       id="image3417"
       xlink:href="file:///Users/m4burns/Downloads/cougar.jpg"
       preserveAspectRatio="none"
       height="635.07019"
       width="878.83826" />
  </g>
  <g
     inkscape:groupmode="layer"
     id="layer2"
     inkscape:label="outline" />
  <path
     style="fill:none;fill-rule:evenodd;stroke:#000000;stroke-width:1px;stroke-linecap:butt;stroke-linejoin:miter;stroke-opacity:1"
     d="m 150.51273,694.7682 c 78.32943,-216.78389 44.17126,-7.5148 76.77159,84.85282"
     id="path3421"
     inkscape:connector-curvature="0" />
  <path
     style="fill:none;fill-rule:evenodd;stroke:#000000;stroke-width:1px;stroke-linecap:butt;stroke-linejoin:miter;stroke-opacity:1"
     d="M 315.16759,797.80376 C 294.31147,748.7349 238.03615,516.62151 289.91378,568.49914 c 15.00219,15.00218 39.8582,25.16816 49.49748,44.44671 12.63619,25.27238 -6.11277,67.57652 7.07106,93.94418 25.25617,50.51235 70.79378,96.08914 101.01526,141.42136"
     id="path3423"
     inkscape:connector-curvature="0" />
  <path
     style="fill:none;fill-rule:evenodd;stroke:#000000;stroke-width:1px;stroke-linecap:butt;stroke-linejoin:miter;stroke-opacity:1"
     d="M 486.89353,585.67173 C 386.1478,698.0167 532.16715,767.12801 523.25902,847.30124"
     id="path3425"
     inkscape:connector-curvature="0" />
  <path
     style="fill:none;fill-rule:evenodd;stroke:#000000;stroke-width:1px;stroke-linecap:butt;stroke-linejoin:miter;stroke-opacity:1"
     d="M 108.08632,681.63622 C 133.23456,611.4787 133.0295,520.39953 147.48227,455.36205"
     id="path3427"
     inkscape:connector-curvature="0" />
  <path
     style="fill:none;fill-rule:evenodd;stroke:#000000;stroke-width:1px;stroke-linecap:butt;stroke-linejoin:miter;stroke-opacity:1"
     d="m 148.49242,336.16405 c -58.78585,70.01846 37.47728,195.92186 54.54824,272.74119"
     id="path3429"
     inkscape:connector-curvature="0" />
  <path
     style="fill:none;fill-rule:evenodd;stroke:#000000;stroke-width:1px;stroke-linecap:butt;stroke-linejoin:miter;stroke-opacity:1"
     d="M 403.05087,298.78841 C 279.43526,357.75736 307.65958,504.38407 338.4011,608.90524"
     id="path3431"
     inkscape:connector-curvature="0" />
  <path
     style="fill:none;fill-rule:evenodd;stroke:#000000;stroke-width:1px;stroke-linecap:butt;stroke-linejoin:miter;stroke-opacity:1"
     d="M 536.391,356.3671 C 505.09943,296.46521 464.58368,276.66009 401.03056,302.82902"
     id="path3433"
     inkscape:connector-curvature="0" />
  <path
     style="fill:none;fill-rule:evenodd;stroke:#000000;stroke-width:1px;stroke-linecap:butt;stroke-linejoin:miter;stroke-opacity:1"
     d="M 147.48227,336.16405 C 192.50576,227.11803 323.00483,225.05517 405.07117,300.80871"
     id="path3437"
     inkscape:connector-curvature="0" />
  <path
     style="fill:none;fill-rule:evenodd;stroke:#000000;stroke-width:1px;stroke-linecap:butt;stroke-linejoin:miter;stroke-opacity:1"
     d="M 410.12193,478.59556 C 381.20957,452.51654 385.27045,417.18175 398.0001,391.72244"
     id="path3439"
     inkscape:connector-curvature="0" />
  <path
     style="fill:none;fill-rule:evenodd;stroke:#000000;stroke-width:1px;stroke-linecap:butt;stroke-linejoin:miter;stroke-opacity:1"
     d="m 441.43666,291.71734 c -2.47113,34.15358 24.31207,53.9204 46.46702,68.69037"
     id="path3441"
     inkscape:connector-curvature="0" />
  <path
     style="fill:none;fill-rule:evenodd;stroke:#000000;stroke-width:1px;stroke-linecap:butt;stroke-linejoin:miter;stroke-opacity:1"
     d="m 394.96965,336.16405 c 3.44867,-2.94216 7.34628,-6.93346 11.11167,-5.05076 3.07719,1.53859 7.60168,8.61183 10.10153,11.11168 5.59413,5.59413 14.8456,8.78468 19.1929,13.13198 4.45368,4.45368 4.72625,10.78717 9.09137,15.15229 2.67545,2.67544 8.53269,2.47177 11.11168,5.05076 1.5208,1.5208 -0.46179,4.04061 0,4.04061 10.76095,0 43.8981,12.67044 53.53808,3.03046 0.68324,-0.68324 12.8741,-0.63402 14.14214,0 1.90476,0.95238 2.0203,8.1905 2.0203,6.06091 0,-10.14499 9.19496,-9.09137 18.18275,-9.09137 9.79334,0 39.86141,1.2825 48.48732,-3.03046 6.46948,-3.23474 38.11457,-49.96516 40.4061,-54.54824"
     id="path3447"
     inkscape:connector-curvature="0" />
  <path
     style="fill:none;fill-rule:evenodd;stroke:#000000;stroke-width:1px;stroke-linecap:butt;stroke-linejoin:miter;stroke-opacity:1"
     d="m 637.40626,322.02191 c 0.50015,18.1986 6.95572,33.45038 -7.07107,47.47717 -1.97302,1.97303 -1.79677,6.84754 -4.04061,9.09138 -4.7131,4.71309 3.03046,14.43146 3.03046,16.16244 0,16.35355 -5.05077,17.15017 -5.05077,32.32488 0,26.31253 12.47314,63.2883 -2.0203,77.78175 -0.8418,0.84179 0.84179,4.20896 0,5.05076 -2.73286,2.73285 -7.05949,5.03918 -9.09137,7.07107 -8.36249,8.36248 -11.17884,16.70109 -20.20306,21.2132 -2.67859,1.33929 6.54073,34.10528 -4.04061,39.39595 -9.96204,4.98102 -20.83425,8.08122 -32.32488,8.08122 -3.62763,0 -10.06819,-6.09425 -11.11168,-5.05076 -1.52455,1.52455 -1.88456,5.05076 -4.04061,5.05076 -10.10495,0 -29.14411,8.66145 -36.36549,5.05076 -7.25935,-3.62967 -22.625,-12.52347 -24.24366,-14.14213 -5.9175,-5.91751 -5.41712,-25.94208 -12.12183,-29.29443 -6.7289,-3.36445 -12.95624,-1.84456 -18.18274,-7.07107 -1.2356,-1.23559 -6.48707,0.79708 -8.08123,0 -1.65113,-0.82556 -4.33254,-6.35285 -6.06091,-8.08122 -2.30137,-2.30137 -14.14214,-9.04113 -14.14214,-10.10152 0,-2.39276 -3.04834,-7.08895 -6.06091,-10.10153 -8.13887,-8.13886 -3.03046,-59.32347 -3.03046,-71.72083 0,-1.74412 2.09786,-18.18274 -3.03046,-18.18274 -3.44926,0 -7.01639,-15.99843 -7.07106,-16.16244 -4.22619,-12.67857 -23.70153,-61.1513 -16.16245,-68.69038 0.63917,-0.63917 7.41951,-3.20467 9.09138,-4.04061"
     id="path3449"
     inkscape:connector-curvature="0" />
  <path
     style="fill:none;fill-rule:evenodd;stroke:#000000;stroke-width:1px;stroke-linecap:butt;stroke-linejoin:miter;stroke-opacity:1"
     d="m 459.61941,467.48388 c 0.36796,1.1041 17.17259,-0.83233 17.17259,0 0,0.69013 13.12829,-1.01385 14.14214,0 3.4454,3.4454 15.15229,9.28755 15.15229,12.12183 0,0.43773 1.24585,2.02031 1.01015,2.02031 -4.23524,0 -12.51082,6.76048 -15.15229,8.08122 -7.32785,3.66392 -30.40336,-20.30184 -32.32488,-22.22336 z"
     id="path3451"
     inkscape:connector-curvature="0" />
  <path
     style="fill:none;fill-rule:evenodd;stroke:#000000;stroke-width:1px;stroke-linecap:butt;stroke-linejoin:miter;stroke-opacity:1"
     d="m 561.64482,476.57525 c 3.9384,-14.63326 33.85666,-22.71187 41.41625,-15.15228 2.89389,2.89389 -7.08557,10.11602 -8.08122,11.11167 -9.04998,9.04998 -22.07247,12.48754 -33.33503,4.04061 z"
     id="path3453"
     inkscape:connector-curvature="0" />
  <path
     style="fill:none;fill-rule:evenodd;stroke:#000000;stroke-width:1px;stroke-linecap:butt;stroke-linejoin:miter;stroke-opacity:1"
     d="m 509.11688,479.60571 c 6.86186,16.83173 -5.9064,51.82682 0,63.63961 1.80951,3.61901 7.27059,7.27059 9.09138,9.09137 2.24618,2.24619 7.29694,10.32741 5.05076,8.08123 -1.8404,-1.8404 7.79103,1.73011 13.13198,7.07106 0.34793,0.34793 6.06092,-0.26209 6.06092,0 0,7.47767 24.91627,-10.77413 30.30457,-16.16244 2.84,-2.83999 0,-13.1875 0,-15.15229 0,-4.23878 -1.97943,-17.09084 -6.06091,-25.25381 -5.13769,-10.27538 -0.76369,-22.49411 -4.04061,-32.32488"
     id="path3455"
     inkscape:connector-curvature="0" />
  <path
     style="fill:none;fill-rule:evenodd;stroke:#000000;stroke-width:1px;stroke-linecap:butt;stroke-linejoin:miter;stroke-opacity:1"
     d="m 514.16765,552.33669 c 15.24341,-2.79357 17.00364,-5.64031 28.28427,0 3.60426,1.80214 9.06124,-3.01539 13.13198,-5.05076 5.54684,-2.77342 7.31548,3.03046 15.15229,3.03046"
     id="path3457"
     inkscape:connector-curvature="0" />
  <path
     style="fill:none;fill-rule:evenodd;stroke:#000000;stroke-width:1px;stroke-linecap:butt;stroke-linejoin:miter;stroke-opacity:1"
     d="m 537.40115,567.48898 c -0.56482,-8.27625 -13.74144,-14.84755 -21.2132,-11.11168"
     id="path3459"
     inkscape:connector-curvature="0" />
  <path
     style="fill:none;fill-rule:evenodd;stroke:#000000;stroke-width:1px;stroke-linecap:butt;stroke-linejoin:miter;stroke-opacity:1"
     d="m 548.51283,566.47883 c -2.01994,-12.909 19.11034,-16.32756 21.21321,-12.12183"
     id="path3461"
     inkscape:connector-curvature="0" />
  <path
     style="fill:none;fill-rule:evenodd;stroke:#000000;stroke-width:1px;stroke-linecap:butt;stroke-linejoin:miter;stroke-opacity:1"
     d="m 477.80215,557.38746 c 9.65787,-19.68309 -3.89564,-30.15961 -19.19289,-45.45687 -4.63337,-4.63336 -4.75057,-15.26185 -8.08122,-25.25381 -1.99366,-5.98097 -7.50009,-10.37843 -9.09138,-15.15229 -2.52427,-7.57282 -17.89006,-11.98972 -20.20305,-5.05076 -6.10738,18.32214 10.10153,19.79874 10.10153,37.37564"
     id="path3463"
     inkscape:connector-curvature="0" />
  <path
     style="fill:none;fill-rule:evenodd;stroke:#000000;stroke-width:1px;stroke-linecap:butt;stroke-linejoin:miter;stroke-opacity:1"
     d="m 591.94939,542.23517 c 1.39654,-3.29353 -4.51685,-15.6862 -1.01015,-19.1929 9.22825,-9.22825 11.22808,-17.289 21.2132,-27.27412 2.90951,-2.9095 0.54786,-15.70014 5.05077,-20.20305 0.64224,-0.64224 13.13198,-6.9796 13.13198,1.01015"
     id="path3465"
     inkscape:connector-curvature="0" />
  <path
     style="fill:none;fill-rule:evenodd;stroke:#000000;stroke-width:1px;stroke-linecap:butt;stroke-linejoin:miter;stroke-opacity:1"
     d="m 523.25902,385.66152 c -2.98747,21.8721 8.08122,35.80391 8.08122,55.55839"
     id="path3467"
     inkscape:connector-curvature="0" />
  <path
     style="fill:none;fill-rule:evenodd;stroke:#000000;stroke-width:1px;stroke-linecap:butt;stroke-linejoin:miter;stroke-opacity:1"
     d="m 477.80215,443.24022 c 7.85496,6.80017 17.19979,16.18964 24.24367,23.23351 0.67156,0.67156 10.75296,0.21714 13.13198,1.01015"
     id="path3469"
     inkscape:connector-curvature="0" />
  <path
     style="fill:none;fill-rule:evenodd;stroke:#000000;stroke-width:1px;stroke-linecap:butt;stroke-linejoin:miter;stroke-opacity:1"
     d="m 558.61436,463.44327 c 16.47772,-4.96916 29.17451,-17.94292 32.32488,-24.24366"
     id="path3471"
     inkscape:connector-curvature="0" />
  <path
     style="fill:none;fill-rule:evenodd;stroke:#000000;stroke-width:1px;stroke-linecap:butt;stroke-linejoin:miter;stroke-opacity:1"
     d="m 477.80215,467.48388 c -0.41747,16.23791 11.91183,13.23699 22.22336,8.08122"
     id="path3473"
     inkscape:connector-curvature="0" />
  <path
     style="fill:none;fill-rule:evenodd;stroke:#000000;stroke-width:1px;stroke-linecap:butt;stroke-linejoin:miter;stroke-opacity:1"
     d="m 486.89353,473.5448 3.03045,2.0203"
     id="path3475"
     inkscape:connector-curvature="0" />
  <path
     style="fill:none;fill-rule:evenodd;stroke:#000000;stroke-width:1px;stroke-linecap:butt;stroke-linejoin:miter;stroke-opacity:1"
     d="m 572.75649,469.50419 c 7.49995,9.99509 16.16244,2.43176 16.16244,-7.07107"
     id="path3477"
     inkscape:connector-curvature="0" />
  <path
     style="fill:none;fill-rule:evenodd;stroke:#000000;stroke-width:1px;stroke-linecap:butt;stroke-linejoin:miter;stroke-opacity:1"
     d="m 577.80726,465.46358 c 1.34687,0.67343 2.69374,1.34687 4.04061,2.0203 0,0.33672 0,0.67344 0,1.01015"
     id="path3479"
     inkscape:connector-curvature="0" />
  <path
     style="fill:none;fill-rule:evenodd;stroke:#000000;stroke-width:1px;stroke-linecap:butt;stroke-linejoin:miter;stroke-opacity:1"
     d="m 558.61436,608.90524 c -1.83007,1.4828 1.66655,8.43497 0,10.10152 -11.08208,11.08208 -11.01112,52.32681 -16.16244,62.62946"
     id="path3483"
     inkscape:connector-curvature="0" />
  <path
     style="fill:none;fill-rule:evenodd;stroke:#000000;stroke-width:1px;stroke-linecap:butt;stroke-linejoin:miter;stroke-opacity:1"
     d="m 516.18795,690.72759 c -0.3234,-9.30524 1.01015,-17.07457 1.01015,-18.18274"
     id="path3485"
     inkscape:connector-curvature="0" />
  <path
     style="fill:none;fill-rule:evenodd;stroke:#000000;stroke-width:1px;stroke-linecap:butt;stroke-linejoin:miter;stroke-opacity:1"
     d="m 496.99505,593.75295 c 1.92404,14.48724 42.0726,26.94595 55.55839,20.20305 8.07744,-4.03872 16.21617,-18.2902 18.18275,-22.22336"
     id="path3487"
     inkscape:connector-curvature="0" />
</svg>
