<?xml version="1.0" encoding="UTF-8" standalone="no"?>
<!-- Created with Inkscape (http://www.inkscape.org/) -->

<svg
   xmlns:dc="http://purl.org/dc/elements/1.1/"
   xmlns:cc="http://creativecommons.org/ns#"
   xmlns:rdf="http://www.w3.org/1999/02/22-rdf-syntax-ns#"
   xmlns:svg="http://www.w3.org/2000/svg"
   xmlns="http://www.w3.org/2000/svg"
   xmlns:sodipodi="http://sodipodi.sourceforge.net/DTD/sodipodi-0.dtd"
   xmlns:inkscape="http://www.inkscape.org/namespaces/inkscape"
   width="160.88907mm"
   height="186.69305mm"
   viewBox="0 0 570.07938 661.51082"
   id="svg3508"
   version="1.1"
   inkscape:version="0.91 r13725"
   sodipodi:docname="cougar2-in.svg">
  <defs
     id="defs3510" />
  <sodipodi:namedview
     id="base"
     pagecolor="#ffffff"
     bordercolor="#666666"
     borderopacity="1.0"
     inkscape:pageopacity="0.0"
     inkscape:pageshadow="2"
     inkscape:zoom="0.7"
     inkscape:cx="66.913214"
     inkscape:cy="357.25964"
     inkscape:document-units="px"
     inkscape:current-layer="layer1"
     showgrid="false"
     inkscape:window-width="1400"
     inkscape:window-height="855"
     inkscape:window-x="0"
     inkscape:window-y="1"
     inkscape:window-maximized="1"
     fit-margin-top="0"
     fit-margin-left="0"
     fit-margin-right="0"
     fit-margin-bottom="0" />
  <metadata
     id="metadata3513">
    <rdf:RDF>
      <cc:Work
         rdf:about="">
        <dc:format>image/svg+xml</dc:format>
        <dc:type
           rdf:resource="http://purl.org/dc/dcmitype/StillImage" />
        <dc:title></dc:title>
      </cc:Work>
    </rdf:RDF>
  </metadata>
  <g
     inkscape:label="reference"
     inkscape:groupmode="layer"
     id="layer1"
     style="display:inline"
     transform="translate(-138.08679,-170.96818)">
    <path
       style="fill:none;fill-rule:evenodd;stroke:#000000;stroke-width:1px;stroke-linecap:butt;stroke-linejoin:miter;stroke-opacity:1"
       d="m 138.57143,805.21935 c 21.08898,-83.11898 -10.31977,-198.72093 10,-280"
       id="path3581"
       inkscape:connector-curvature="0" />
    <path
       style="fill:none;fill-rule:evenodd;stroke:#000000;stroke-width:1px;stroke-linecap:butt;stroke-linejoin:miter;stroke-opacity:1"
       d="m 231.42857,706.64792 c -5.44099,47.17491 14.28572,75.75099 14.28572,118.57143"
       id="path3583"
       inkscape:connector-curvature="0" />
    <path
       style="fill:none;fill-rule:evenodd;stroke:#000000;stroke-width:1px;stroke-linecap:butt;stroke-linejoin:miter;stroke-opacity:1"
       d="m 140,803.79078 c -0.66592,10.51127 7.74454,4.58655 12.85714,7.14285 0.17316,0.0866 1.19727,4.05441 1.42857,4.28572 1.3531,1.3531 5.2729,3.84432 7.14286,5.71428 1.13963,1.13963 25.64402,-1.4637 25.71429,-1.42857 1.89534,0.94767 5.61868,6.38077 7.14285,7.14286 3.36325,1.68162 5.2254,2.36825 7.14286,4.28571 0.94739,0.94739 8.85393,0 10,0 8.09524,0 -9.52381,0 -1.42857,0 3.33333,0 7.64298,2.35703 10,0 4.13445,-4.13445 1.58046,-1.00301 7.14286,-2.85714 0.45175,-0.15058 -0.42592,-1.21561 0,-1.42857 1.86405,-0.93203 11.19374,5.41585 15.71428,4.28571 3.14667,-0.78666 0.18122,-3.03835 1.42857,-4.28571 2.38096,-2.38095 1.42858,5.23809 1.42858,-2.85714"
       id="path3585"
       inkscape:connector-curvature="0" />
    <path
       style="fill:none;fill-rule:evenodd;stroke:#000000;stroke-width:1px;stroke-linecap:butt;stroke-linejoin:miter;stroke-opacity:1"
       d="m 151.42857,528.07649 c 1.05494,-162.49898 85.01185,-347.14286 251.42857,-347.14286 19.50263,0 35.46634,-15.12397 51.42857,-7.14285 67.87973,33.93986 90.21409,115.50019 35.71429,170 -16.94624,16.94623 -14.35921,54.32246 -31.42857,62.85714"
       id="path3587"
       inkscape:connector-curvature="0" />
    <path
       style="fill:none;fill-rule:evenodd;stroke:#000000;stroke-width:1px;stroke-linecap:butt;stroke-linejoin:miter;stroke-opacity:1"
       d="m 274.28571,488.07649 c -38.68583,-65.20194 34.56729,-82.294 58.57143,-34.28571"
       id="path3589"
       inkscape:connector-curvature="0" />
    <path
       style="fill:none;fill-rule:evenodd;stroke:#000000;stroke-width:1px;stroke-linecap:butt;stroke-linejoin:miter;stroke-opacity:1"
       d="m 411.42857,449.50506 c 52.50219,-65.56626 42.29544,-31.78238 34.28572,24.28572"
       id="path3591"
       inkscape:connector-curvature="0" />
    <path
       style="fill:none;fill-rule:evenodd;stroke:#000000;stroke-width:1px;stroke-linecap:butt;stroke-linejoin:miter;stroke-opacity:1"
       d="m 334.28571,453.79078 c 21.90047,-8.06131 57.54004,-8.57143 74.28572,-8.57143"
       id="path3593"
       inkscape:connector-curvature="0" />
    <path
       style="fill:none;fill-rule:evenodd;stroke:#000000;stroke-width:1px;stroke-linecap:butt;stroke-linejoin:miter;stroke-opacity:1"
       d="m 270,486.64792 c 3.29449,1.76151 -5.92005,38.36566 -1.42857,42.85714 6.10643,6.10644 6.37324,14.94467 12.85714,21.42857 0.93655,0.93655 4.99857,0.71286 5.71429,1.42857 2.85408,2.85409 3.44397,6.30112 5.71428,8.57143 0.71572,0.71572 4.77775,0.49203 5.71429,1.42857 6.92844,6.92845 18.22409,9.65267 25.71428,17.14286 3.93548,3.93548 11.12699,1.99207 15.71429,4.28572 1.70367,0.85183 1.90476,5.71428 0,5.71428 -0.47619,0 1.21561,-0.42592 1.42857,0 1.25366,2.50732 1.68064,3.10921 4.28572,5.71429 4.60259,4.60259 7.36852,5.82712 12.85714,8.57143 4.80812,2.40406 9.40106,11.50546 11.42857,12.85714 5.04465,3.3631 8.75967,-0.53378 11.42857,0 4.27187,0.85437 23.87609,8.98105 30,2.85714 1.49883,-1.49883 3.48123,-4.90979 5.71429,-7.14286 2.85408,-2.85408 7.72968,-2.01539 10,-4.28571 0.67343,-0.67343 -0.42592,-2.00531 0,-2.85714 1.3631,-2.7262 7.59816,-7.59816 10,-10 1.38832,-1.38832 -0.53481,-5.71429 1.42857,-5.71429 2.12359,0 15.71428,-15.71313 15.71428,-17.14286 0,-43.58666 4.7414,-59.60585 -10,-118.57142"
       id="path3597"
       inkscape:connector-curvature="0" />
    <path
       style="fill:none;fill-rule:evenodd;stroke:#000000;stroke-width:1px;stroke-linecap:butt;stroke-linejoin:miter;stroke-opacity:1"
       d="m 328.57143,515.21935 c 17.51813,0.14819 45.71428,0.31776 45.71428,17.14285 0,1.64808 7.72791,7.98638 4.28572,11.42858 -5.53873,5.53872 -14.23348,-6.40246 -15.71429,-7.14286 -4.86982,-2.43491 -18.29585,-2.58156 -22.85714,-7.14286 -5.91727,-5.91727 -2.1529,-8.10193 -11.42857,-14.28571 z"
       id="path3599"
       inkscape:connector-curvature="0" />
    <path
       style="fill:none;fill-rule:evenodd;stroke:#000000;stroke-width:1px;stroke-linecap:butt;stroke-linejoin:miter;stroke-opacity:1"
       d="m 420,522.3622 c 11.17933,1.66314 1.04386,-5.32957 2.85714,-7.14285 0.66038,-0.66038 3.42318,0.43126 4.28572,0 7.99321,-3.99661 21.42857,-12.88345 21.42857,2.85714 0,1.26574 0.44327,4.82775 0,5.71429 -0.42592,0.85183 -2.00531,-0.42592 -2.85714,0 -1.96872,0.98436 -1.92181,3.35038 -2.85715,4.28571 -2.61904,2.61905 -11.66666,-1.19048 -14.28571,1.42857 -1.34687,1.34687 -7.61905,0 -5.71429,0 4.45644,0 -0.50599,-2.44057 -2.85714,-7.14286 z"
       id="path3601"
       inkscape:connector-curvature="0" />
    <path
       style="fill:none;fill-rule:evenodd;stroke:#000000;stroke-width:1px;stroke-linecap:butt;stroke-linejoin:miter;stroke-opacity:1"
       d="m 422.85714,533.79078 c 3.26653,5.97635 -3.0452,16.76672 0,22.85714 2.36444,4.72887 11.62232,21.04108 8.57143,27.14286 -1.13963,2.27926 -4.77754,4.77754 -5.71428,5.71428 -1.93391,1.93391 -11.79284,0.18214 -14.28572,1.42857 -0.9021,0.45105 -8.22227,7.49202 -11.42857,4.28572 -2.79422,-2.79422 -2.77788,-7.73825 -4.28571,-10 -3.296,-4.944 -15.41795,-7.97876 -17.14286,-11.42857 -4.99064,-9.98128 5.71428,-23.63074 5.71428,-25.71429"
       id="path3603"
       inkscape:connector-curvature="0" />
    <path
       style="fill:none;fill-rule:evenodd;stroke:#000000;stroke-width:1px;stroke-linecap:butt;stroke-linejoin:miter;stroke-opacity:1"
       d="m 268.57143,673.79078 c 22.31357,-15.27371 40.70858,-42.13716 57.14286,-58.57143 5.82254,-5.82255 6.79544,-18.22401 11.42857,-22.85715"
       id="path3605"
       inkscape:connector-curvature="0" />
    <path
       style="fill:none;fill-rule:evenodd;stroke:#000000;stroke-width:1px;stroke-linecap:butt;stroke-linejoin:miter;stroke-opacity:1"
       d="m 295.71429,562.3622 c -1.30853,3.43389 -4.5005,10.21479 -7.14286,12.85715 -1.66667,1.66666 -5.47619,1.19047 -7.14286,2.85714 -1.50508,1.50508 -2.94168,5.79883 -4.28571,7.14286 -0.47619,0.47619 -3.80953,0.95238 -4.28572,1.42857 -0.66037,0.66038 0.43127,3.42318 0,4.28571 -4.42413,8.84827 -10.30165,18.87309 -17.14285,25.71429 C 247.12852,625.23368 230,638.19791 230,652.3622 c 0,3.18234 -1.81038,13.90391 0,15.71429 2.57983,2.57983 37.00562,1.42857 42.85714,1.42857"
       id="path3607"
       inkscape:connector-curvature="0" />
    <path
       style="fill:none;fill-rule:evenodd;stroke:#000000;stroke-width:1px;stroke-linecap:butt;stroke-linejoin:miter;stroke-opacity:1"
       d="m 474.28571,436.64792 c -0.2817,13.08741 -1.43294,25.70553 4.28572,37.14286 0.7619,1.52381 -0.76191,4.19047 0,5.71428 3.39548,6.79096 7.69761,16.26904 11.42857,20 1.01015,1.01015 -0.63888,3.00796 0,4.28572 8.48721,16.97442 8.57143,42.99042 8.57143,64.28571 0,1.90338 4.36891,14.20251 1.42857,17.14286 -6.56054,6.56053 -17.48603,11.77175 -24.28571,18.57143 -6.75932,6.75931 -38.20504,1.79496 -38.57143,1.42857 -1.14184,-1.14184 0,-8.0615 0,-10"
       id="path3609"
       inkscape:connector-curvature="0" />
    <path
       style="fill:none;fill-rule:evenodd;stroke:#000000;stroke-width:1px;stroke-linecap:butt;stroke-linejoin:miter;stroke-opacity:1"
       d="m 508.57143,323.79078 c 1.15098,11.73681 12.51334,46.79905 20,54.28571 4.98216,4.98216 16.02821,14.7566 21.42857,22.85714 1.75956,2.63934 4.33551,5.81387 5.71429,8.57143 0.67343,1.34687 -5.35051,0.36378 -4.28572,1.42857 3.60974,3.60974 10.5782,4.67118 14.28572,7.14286 5.04114,3.36076 9.15967,8.01121 14.28571,11.42857 3.26684,2.17789 4.61177,6.04034 7.14286,8.57143 8.80931,8.80931 16.67675,18.10532 24.28571,25.71429 4.8585,4.8585 13.7228,8.00851 18.57143,12.85714 1.11648,1.11648 4.30034,0.95726 5.71429,1.42857 3.15554,1.05185 5.06682,4.54609 8.57142,5.71429 11.47469,3.82489 25.64546,7.10844 34.28572,11.42857 4.95829,2.47914 12.21498,6.50069 15.71428,10 2.41528,2.41527 4.18109,6.59691 7.14286,8.57143 1.25294,0.83529 3.22092,0.36377 4.28572,1.42857 2.0907,2.0907 -3.56206,7.16159 0,14.28571 0.53106,1.06213 3.01759,5.55384 1.42857,7.14286 -16.4984,16.4984 -49.8789,20.03028 -72.85715,14.28571 -11.20087,-2.80022 -20.24678,-11.49026 -31.42857,-14.28571 -4.86573,-1.21643 -16.09056,-13.04528 -21.42857,-15.71429 -23.19182,-11.59591 -52.00941,-25.44739 -62.85714,-47.14285 -2.42525,-4.85049 -14.12702,-9.52393 -15.71429,-14.28572 -2.33454,-7.00362 -8.87076,-9.17009 -11.42857,-14.28571 -5.12985,-10.2597 -20.31269,-40.31269 -24.28571,-44.28572"
       id="path3611"
       inkscape:connector-curvature="0" />
  </g>
</svg>
